<svg id="blackkingsvg" preserveAspectRatio="none" viewBox="226 0 226 445">
  <g id="blackking">
    <path id="whiteoutline" d="m177.57739,443.21262c-37.82,-2.38 -72.44,-10.98 -98.55,-24.5c-7.313,-3.78 -9.668,-5.52 -10.403,-7.66c-0.67,-1.95 -0.227,-8.73 1.504,-23l2.454,-20.23l-2.372,-26.5l-2.372,-26.5l-6.02,-10.5c-8.287,-14.46 -18.199,-29.13 -30.075,-44.5c-16.93,-21.92 -22.602,-31.4 -27.228,-45.5c-2.394,-7.3 -2.799,-10.2 -2.865,-20.5c-0.064,-9.93 0.327,-13.29 2.266,-19.5c7.194,-23.03 22.734,-40.01 43.512,-47.56c19.539,-7.09 37.909,-7.04 60.819,0.16c22.26,7 50.12,23.89 70.47,42.73l5.92,5.48l-2.21,-8.76c-4.57,-18.12 -5.42,-31.98 -2.76,-44.84c2.95,-14.28 9.79,-27.05 18.62,-34.72c4.17,-3.62 16.94,-10.49 19.51,-10.49c0.99,0 1.28,-3.96 1.28,-17.502l0,-17.5l-16.5,0l-16.5,0l0,-7.5l0,-7.5l16.5,0l16.5,0l0,-11l0,-11l7.5,0l7.5,0l0,11l0,11l16,0l16,0l0,7.5l0,7.5l-16,0l-16,0l0,17.25l0,17.252l7.25,3.26c16.31,7.34 26.88,21.75 31.16,42.45c2.65,12.86 1.8,26.72 -2.77,44.84l-2.21,8.76l5.92,-5.48c14.77,-13.67 34.55,-27.1 52.15,-35.4c23.93,-11.28 46.51,-15.22 65.19,-11.36c17.16,3.55 27.95,9.15 39.31,20.43c16.38,16.26 24.03,40.91 19.55,63.03c-3.29,16.28 -10.04,28.64 -29.2,53.47c-11.89,15.41 -21.82,30.09 -30.09,44.5l-6.03,10.5l-2.37,26.5l-2.37,26.5l2.45,20.23c1.73,14.27 2.17,21.05 1.5,23c-0.73,2.14 -3.09,3.88 -10.4,7.66c-26.95,13.95 -60.12,22.02 -101.04,24.57c-18.94,1.18 -75.28,1.14 -94.5,-0.07z" fill="#484848"/>
    <path id="whiteinside1" d="m227.35739,238.57262c0.29,-0.96 4.2,-12.33 8.7,-25.25c16.95,-48.77 18.55,-54.61 19.65,-71.54c1.11,-17.25 -2.2,-29.15 -10.86,-38.98c-5.02,-5.71 -12.47,-9.46 -18.77,-9.46c-6.31,0 -13.75,3.75 -18.78,9.46c-8.65,9.83 -11.97,21.73 -10.85,38.98c1.09,16.93 2.69,22.77 19.65,71.54c4.49,12.92 8.4,24.29 8.69,25.25c0.28,0.96 0.86,1.75 1.29,1.75c0.42,0 1,-0.79 1.28,-1.75z" fill="#000000"/>
    <path id="whiteinside2" d="m375.99739,294.25262c6.47,-11.73 19.86,-31.47 32.17,-47.43c18.7,-24.25 23.64,-34.18 24.6,-49.45c1.06,-16.9 -3.96,-30.54 -15.44,-41.98c-11.95,-11.9 -25.86,-16.74 -45.25,-15.73c-18.12,0.95 -34.24,6.5 -54.87,18.92c-33.44,20.13 -63.63,55.07 -71.81,83.13c-1.98,6.77 -6.4,26.83 -8.66,39.23l-0.56,3.13l13.2,0.66c38.4,1.93 87.7,8.91 113.2,16.02c8.47,2.36 8.55,2.32 13.42,-6.5z" fill="#000000"/>
    <path id="whiteinside3" d="m99.57739,298.45262c29.26,-6.69 63.08,-11.37 95.5,-13.22c11.27,-0.64 20.6,-1.24 20.72,-1.34c0.51,-0.42 -6.83,-34.68 -9.03,-42.18c-8.25,-28.13 -38.4,-63.01 -71.83,-83.13c-20.63,-12.42 -36.74,-17.97 -54.86,-18.92c-19.395,-1.01 -33.312,3.83 -45.254,15.73c-11.495,11.45 -16.528,25.14 -15.416,41.93c1.028,15.52 6.186,25.8 25.344,50.51c11.684,15.07 24.983,34.76 31.366,46.43c5.16,9.43 2.59,8.97 23.46,4.19z" fill="#000000"/>
    <path id="whiteinside4" d="m130.93739,344.86262c71.89,-15.99 147.95,-13.46 218.86,7.27l12.95,3.78l1.22,-15.04c0.66,-8.28 1.45,-16.44 1.74,-18.13l0.52,-3.07l-14.33,-3.25c-82.01,-18.61 -169.64,-18.61 -251.65,0l-14.33,3.25l0.53,3.07c0.28,1.69 1.07,9.85 1.74,18.13l1.21,15.04l12.95,-3.78c7.13,-2.09 19.99,-5.36 28.59,-7.27z" fill="#000000"/>
    <path id="whiteinside5" d="m127.57739,381.31262c36.73,-9.52 59.76,-12.43 98.5,-12.43c21.19,0 32.21,0.46 43,1.78c27.63,3.38 58.41,10.38 83.26,18.92c9.91,3.41 12.66,4.04 12.3,2.82c-0.26,-0.87 -0.77,-4.84 -1.14,-8.82c-0.37,-3.97 -1.18,-7.89 -1.8,-8.7c-1.38,-1.82 -23.66,-8.38 -42.29,-12.45c-70.2,-15.35 -145.79,-12.88 -214.17,7c-7.52,2.18 -14.17,4.64 -14.79,5.45c-0.61,0.81 -1.42,4.73 -1.8,8.7c-0.37,3.98 -0.88,7.95 -1.14,8.82c-0.36,1.22 2.39,0.59 12.3,-2.82c7.02,-2.41 19.52,-6.13 27.77,-8.27z" fill="#000000"/>
    <path id="whiteinside6" d="m272.07739,425.28262c19.4,-1.21 39.53,-3.99 53.5,-7.38c12.46,-3.03 27.93,-8.57 26.82,-9.6c-1.19,-1.12 -21.14,-7.4 -32.82,-10.34c-32.91,-8.26 -56.66,-11.08 -93.5,-11.08c-36.85,0 -60.6,2.82 -93.5,11.08c-11.69,2.94 -31.64,9.22 -32.83,10.34c-1.1,1.03 14.36,6.56 26.83,9.6c13.07,3.18 34.74,6.29 51,7.31c19.22,1.21 75.56,1.25 94.5,0.07z" fill="#000000"/>
 </g>
</svg>